HIERARCHY
ROOT Hips
{
	OFFSET 0.000000 0.000000 0.000000
	CHANNELS 6 Xposition Yposition Zposition Zrotation Yrotation Xrotation 
	JOINT LowerBack
	{
		OFFSET 0.000000 0.000000 0.000000
		CHANNELS 3 Zrotation Yrotation Xrotation
		JOINT Spine
		{
			OFFSET 0.028270 2.035590 -0.193380
			CHANNELS 3 Zrotation Yrotation Xrotation
			JOINT Spine1
			{
				OFFSET 0.056720 2.048850 -0.042750
				CHANNELS 3 Zrotation Yrotation Xrotation
				JOINT Neck
				{
					OFFSET 0.000000 0.000000 0.000000
					CHANNELS 3 Zrotation Yrotation Xrotation
					JOINT Neck1
					{
						OFFSET -0.054170 1.746240 0.172020
						CHANNELS 3 Zrotation Yrotation Xrotation
						JOINT Head
						{
							OFFSET 0.104070 1.761360 -0.123970
							CHANNELS 3 Zrotation Yrotation Xrotation
							End Site
							{
								OFFSET 0.000000 0.000000 0.000000
							}
						}
					}
				}
				JOINT LeftShoulder
				{
					OFFSET 0.000000 0.000000 0.000000
					CHANNELS 3 Zrotation Yrotation Xrotation
					JOINT LeftArm
					{
						OFFSET 3.362410 1.200890 -0.311210
						CHANNELS 3 Zrotation Yrotation Xrotation
						JOINT LeftForeArm
						{
							OFFSET 4.983000 -0.000000 -0.000000
							CHANNELS 3 Zrotation Yrotation Xrotation
							JOINT LeftHand
							{
								OFFSET 3.483560 -0.000000 -0.000000
								CHANNELS 3 Zrotation Yrotation Xrotation
								JOINT LeftFingerBase
								{
									OFFSET 0.000000 0.000000 0.000000
									CHANNELS 3 Zrotation Yrotation Xrotation
									JOINT LeftHandIndex1
									{
										OFFSET 0.715260 -0.000000 -0.000000
										CHANNELS 3 Zrotation Yrotation Xrotation
										End Site
										{
											OFFSET 0.000000 0.000000 0.000000
										}
									}
								}
								JOINT LThumb
								{
									OFFSET 0.000000 0.000000 0.000000
									CHANNELS 3 Zrotation Yrotation Xrotation
									End Site
									{
										OFFSET 0.000000 0.000000 0.000000
									}
								}
							}
						}
					}
				}
				JOINT RightShoulder
				{
					OFFSET 0.000000 0.000000 0.000000
					CHANNELS 3 Zrotation Yrotation Xrotation
					JOINT RightArm
					{
						OFFSET -3.136600 1.374050 -0.404650
						CHANNELS 3 Zrotation Yrotation Xrotation
						JOINT RightForeArm
						{
							OFFSET -5.241900 -0.000000 -0.000000
							CHANNELS 3 Zrotation Yrotation Xrotation
							JOINT RightHand
							{
								OFFSET -3.444170 -0.000000 -0.000000
								CHANNELS 3 Zrotation Yrotation Xrotation
								JOINT RightFingerBase
								{
									OFFSET 0.000000 0.000000 0.000000
									CHANNELS 3 Zrotation Yrotation Xrotation
									JOINT RightHandIndex1
									{
										OFFSET -0.622530 -0.000000 -0.000000
										CHANNELS 3 Zrotation Yrotation Xrotation
										End Site
										{
											OFFSET 0.000000 0.000000 0.000000
										}
									}
								}
								JOINT RThumb
								{
									OFFSET 0.000000 0.000000 0.000000
									CHANNELS 3 Zrotation Yrotation Xrotation
									End Site
									{
										OFFSET 0.000000 0.000000 0.000000
									}
								}
							}
						}
					}
				}
			}
		}
	}
}
}
MOTION
Frames: 9
Frame Time: 0.008333
-1.102922 16.508346 2.009717 -86.141204 81.382163 -70.531209 1.782783 -0.438042 -1.569540 -0.545912 -0.639758 -3.261328 -6.619765 -0.595945 0.076117 11.446305 -9.511031 -8.453728 -2.020180 -0.142033 -0.235514 0.000000 0.000000 0.000000 4.855096 15.514343 1.707084 -53.736634 26.129254 14.551792 -0.026823 -89.270756 -0.003491 0.743698 3.252436 0.024528 -0.091388 0.073902 0.000000 0.000000 0.000000 0.000000 0.000000 0.000000 0.000000 8.681440 -1.718305 -0.347263 55.296723 26.911758 15.783855 179.676074 85.529014 179.997576 -0.961511 7.363856 -0.067647 0.033569 -0.554486 -0.000000 0.000000 0.000000 0.000000 0.000000 0.000000 0.000000 
-0.946300 16.413545 1.994978 -85.261549 81.214399 -69.781632 1.696363 -0.492374 -1.598778 -0.572922 -0.691069 -3.258489 -6.681040 -0.645172 0.097106 11.391130 -9.297994 -8.423067 -2.045041 -0.144224 -0.228198 0.000000 0.000000 0.000000 4.508632 15.811158 1.772072 -53.630110 25.895507 14.503747 -0.086840 -88.329283 -0.003762 0.697152 3.418993 0.024419 -0.093646 0.066858 0.000000 0.000000 0.000000 0.000000 0.000000 0.000000 0.000000 8.721208 -1.558445 -0.460833 55.266312 27.573838 15.147162 179.712397 85.800372 179.994071 -1.354502 8.163161 -0.104948 0.035097 -0.572707 0.000000 0.000000 0.000000 0.000000 0.000000 0.000000 0.000000 
-0.795537 16.327670 1.977094 -83.964774 81.107631 -68.633064 1.594606 -0.511578 -1.580298 -0.602348 -0.704360 -3.246993 -6.737232 -0.656523 0.117653 11.254880 -9.053254 -8.403592 -2.075103 -0.146468 -0.225499 0.000000 0.000000 0.000000 4.050219 16.186516 1.849061 -53.500474 25.232048 14.449473 -0.161208 -87.164824 -0.004662 0.853726 3.694789 0.031636 -0.100007 0.059438 0.000000 0.000000 0.000000 0.000000 0.000000 0.000000 0.000000 8.695273 -1.361830 -0.594287 55.402137 28.091200 14.484608 179.759503 86.247479 179.990051 -1.781006 9.044794 -0.151946 0.036211 -0.590807 -0.000000 0.000000 0.000000 0.000000 0.000000 0.000000 0.000000 
-0.650621 16.253468 1.956030 -82.263962 81.066766 -67.093030 1.465962 -0.493042 -1.521614 -0.637517 -0.676644 -3.230157 -6.790941 -0.627242 0.131583 11.042587 -8.779118 -8.390427 -2.112786 -0.149047 -0.225966 0.000000 0.000000 0.000000 3.488366 16.605863 1.932464 -53.348041 24.175424 14.383641 -0.248266 -85.811014 -0.006156 1.221669 4.062777 0.047972 -0.110028 0.051990 0.000000 0.000000 0.000000 0.000000 0.000000 0.000000 0.000000 8.620707 -1.128959 -0.740005 55.695833 28.437007 13.805491 179.815021 86.871908 179.985474 -2.251194 9.956471 -0.210438 0.037421 -0.607472 0.000000 0.000000 0.000000 0.000000 0.000000 0.000000 0.000000 
-0.511325 16.192876 1.931766 -80.204830 81.092968 -65.196935 1.301318 -0.436675 -1.436317 -0.680793 -0.607795 -3.211403 -6.843113 -0.557381 0.136616 10.761064 -8.475027 -8.380315 -2.159369 -0.152130 -0.228580 0.000000 0.000000 0.000000 2.850641 17.046904 2.017130 -53.189219 22.756569 14.312722 -0.346369 -84.294391 -0.008197 1.793713 4.493349 0.075826 -0.122980 0.045092 0.000000 0.000000 0.000000 0.000000 0.000000 0.000000 0.000000 8.511370 -0.859136 -0.891974 56.130073 28.588368 13.110686 179.876323 87.670957 179.980400 -2.766932 10.837070 -0.280527 0.038961 -0.621331 0.000000 0.000000 0.000000 0.000000 0.000000 0.000000 0.000000 
-0.377292 16.147091 1.903875 -77.892423 81.176238 -63.039390 1.107890 -0.345041 -1.338519 -0.730818 -0.501434 -3.194264 -6.893919 -0.450691 0.129497 10.416053 -8.142189 -8.368863 -2.215886 -0.155893 -0.231916 0.000000 0.000000 0.000000 2.156102 17.478303 2.096924 -53.037781 21.035082 14.240531 -0.452316 -82.664945 -0.010667 2.545552 4.950050 0.116590 -0.137872 0.039276 0.000000 0.000000 0.000000 0.000000 0.000000 0.000000 0.000000 8.379536 -0.554330 -1.041780 56.671749 28.537137 12.399381 179.940246 88.640195 179.974974 -3.324976 11.619794 -0.360312 0.040999 -0.631079 0.000000 0.000000 0.000000 0.000000 0.000000 0.000000 0.000000 
-0.247995 16.116376 1.871576 -75.510295 81.298874 -60.794964 0.907892 -0.223463 -1.240450 -0.782761 -0.364830 -3.181579 -6.942351 -0.314501 0.107270 10.011969 -7.780968 -8.350951 -2.282719 -0.160477 -0.234312 0.000000 0.000000 0.000000 1.420314 17.867132 2.166373 -52.908530 19.086602 14.171754 -0.561971 -80.985268 -0.013430 3.437084 5.393438 0.169556 -0.153603 0.034990 0.000000 0.000000 0.000000 0.000000 0.000000 0.000000 0.000000 8.232767 -0.216678 -1.180626 57.276041 28.284979 11.667984 -179.996690 89.770947 179.969419 -3.915066 12.237922 -0.445796 0.043542 -0.635638 0.000000 0.000000 0.000000 0.000000 0.000000 0.000000 0.000000 
-0.122853 16.100287 1.834296 -73.271929 81.449195 -58.674380 0.721530 -0.079171 -1.149240 -0.831998 -0.206789 -3.174202 -6.986530 -0.157535 0.070162 9.557086 -7.396497 -8.323545 -2.359575 -0.165928 -0.234763 0.000000 0.000000 0.000000 0.666305 18.187872 2.221523 -52.821761 16.983018 14.115893 -0.671162 -79.316063 -0.016321 4.415183 5.785280 0.232022 -0.169088 0.032603 0.000000 0.000000 0.000000 0.000000 0.000000 0.000000 0.000000 8.081629 0.146203 -1.299756 57.891632 27.850016 10.916810 0.062199 88.949034 -0.035993 -4.521939 12.629781 -0.530585 0.046530 -0.634280 -0.000000 0.000000 0.000000 0.000000 0.000000 0.000000 0.000000 
-0.001194 16.097777 1.791464 -71.442795 81.616747 -56.941904 0.573580 0.079236 -1.070521 -0.872936 -0.037724 -3.172348 -7.024566 0.009938 0.019362 9.061353 -6.996308 -8.283927 -2.445696 -0.172249 -0.232334 0.000000 0.000000 0.000000 -0.085114 18.415701 2.260063 -52.795220 14.800152 14.083071 -0.775471 -77.722024 -0.019169 5.417166 6.094167 0.298382 -0.183393 0.032320 0.000000 0.000000 0.000000 0.000000 0.000000 0.000000 0.000000 7.936198 0.524372 -1.390697 58.466209 27.257394 10.152635 0.113867 87.538814 -0.040951 -5.123404 12.744104 -0.605985 0.049843 -0.626661 -0.000000 0.000000 0.000000 0.000000 0.000000 0.000000 0.000000 
